# xmcd
#
# Track frame offsets:
#	150
#	17451
#	32135
#	44211
#	60650
#	70688
#	86618
#	100912
#	112614
#	127676
#	145743
#	159296
#	174179
#	188457
#	203393
#	225676
#
# Disc length: 3192 seconds
#
# Revision: 1
# Processed by: cddbd v1.5.1PL2 Copyright (c) Steve Scherf et al.
# Submitted via: EasyCDDAExtractor 9.0.0.1
#
DISCID=b80c7610
DTITLE=Dolly Parton - Legendary Dolly Parton [CD3]
DYEAR=2000
DGENRE=Country
TTITLE0=Great Balls Of Fire
TTITLE1=Almost In Love
TTITLE2=To Daddy
TTITLE3=She Don't Love You (Like I Love You)
TTITLE4=Travelling Man
TTITLE5=Heartbreaker
TTITLE6=I Really Got The Feeling
TTITLE7=Last Thing On My Mind
TTITLE8=Tie Our Love (In A Double Knot)
TTITLE9=Do I Ever Cross Your Mind
TTITLE10=I Really Don't Want To Know
TTITLE11=We'll Sing In The Sunshine
TTITLE12=Mule Skinner Blues
TTITLE13=Downtown
TTITLE14=Light Of A Clear Blue Morning
TTITLE15=Joshua
EXTD=
EXTT0=
EXTT1=
EXTT2=
EXTT3=
EXTT4=
EXTT5=
EXTT6=
EXTT7=
EXTT8=
EXTT9=
EXTT10=
EXTT11=
EXTT12=
EXTT13=
EXTT14=
EXTT15=
PLAYORDER=
